<?xml version="1.0" encoding="iso-8859-1"?>
<!-- Generator: Adobe Illustrator 19.0.0, SVG Export Plug-In . SVG Version: 6.00 Build 0)  -->
<svg version="1.1" id="Layer_1" xmlns="http://www.w3.org/2000/svg" xmlns:xlink="http://www.w3.org/1999/xlink" x="0px" y="0px"
	 viewBox="0 0 392.469 392.469" style="enable-background:new 0 0 392.469 392.469;" xml:space="preserve">
<path style="fill:#FFFFFF;" d="M48.743,244.816v115.006c0,6.012,4.848,10.925,10.925,10.925h273.261
	c6.012,0,10.925-4.849,10.925-10.925V244.816"/>
<path style="fill:#FFC10D;" d="M322.004,348.897V244.816h-10.279v14.869c0,18.036-14.675,32.711-32.711,32.711h-6.271
	c-18.036,0-32.711-14.675-32.711-32.711v-14.869h-87.531v14.869c0,18.036-14.675,32.711-32.711,32.711h-6.271
	c-18.036,0-32.711-14.675-32.711-32.711v-14.869H70.465v104.081H322.004z"/>
<path style="fill:#FFFFFF;" d="M359.822,223.03c6.012,0,10.925-4.848,10.925-10.925V100.008c0-6.012-4.848-10.925-10.925-10.925
	H32.711c-6.012,0-10.925,4.848-10.925,10.925v84.816v12.412v14.869c0,6.012,4.848,10.925,10.925,10.925"/>
<path style="fill:#56ACE0;" d="M348.962,110.869H43.572v5.301h44.347c6.012,0,10.925,4.848,10.925,10.925
	c0,6.077-4.848,10.925-10.925,10.925H43.572v25.018h5.883c6.012,0,10.925,4.848,10.925,10.925c0,6.012-4.848,10.925-10.925,10.925
	h-5.818v16.356h38.012c3.232-14.675,16.291-25.729,31.935-25.729h6.271c15.58,0,28.768,11.055,31.935,25.729h89.018
	c3.232-14.675,16.291-25.729,31.935-25.729h6.271c15.58,0,28.768,11.055,31.935,25.729h38.012V110.869L348.962,110.869z"/>
<g>
	<path style="fill:#FFC10D;" d="M102.594,259.62c0,6.012,4.848,10.925,10.925,10.925h6.271c6.012,0,10.925-4.848,10.925-10.925
		v-51.459c0-6.012-4.848-10.925-10.925-10.925h-6.271c-6.012,0-10.925,4.848-10.925,10.925V259.62z"/>
	<path style="fill:#FFC10D;" d="M279.014,197.301h-6.271c-6.012,0-10.925,4.848-10.925,10.925v51.394
		c0,6.012,4.848,10.925,10.925,10.925h6.271c6.012,0,10.925-4.848,10.925-10.925v-51.459
		C289.939,202.15,284.962,197.301,279.014,197.301z"/>
</g>
<path style="fill:#194F82;" d="M359.822,67.297h-88.113V32.711C271.709,14.675,257.034,0,238.998,0H153.6
	c-18.036,0-32.711,14.675-32.711,32.711v34.521H32.711C14.675,67.297,0,81.972,0,100.008v112.097
	c0,16.097,11.636,29.414,26.893,32.129v115.523c0,18.036,14.675,32.711,32.711,32.711h273.261c18.036,0,32.711-14.675,32.711-32.711
	V244.234c15.321-2.78,26.893-16.097,26.893-32.129V100.008C392.533,81.972,377.859,67.297,359.822,67.297z M142.739,32.711
	c0-6.012,4.848-10.925,10.925-10.925h85.398c6.012,0,10.925,4.848,10.925,10.925v34.521H142.739V32.711z M343.79,359.822
	c0,6.012-4.849,10.925-10.925,10.925H59.669c-6.012,0-10.925-4.849-10.925-10.925V244.752h32.065v14.869
	c0,18.036,14.675,32.711,32.711,32.711h6.271c18.036,0,32.711-14.675,32.711-32.711v-14.869h87.467v14.869
	c0,18.036,14.675,32.711,32.711,32.711h6.271c18.036,0,32.711-14.675,32.711-32.711v-14.869h32.065v115.071H343.79z M102.594,259.62
	v-51.459c0-6.012,4.848-10.925,10.925-10.925h6.271c6.012,0,10.925,4.848,10.925,10.925v51.459c0,6.012-4.848,10.925-10.925,10.925
	h-6.271C107.572,270.546,102.594,265.632,102.594,259.62z M261.818,259.62v-51.459c0-6.012,4.848-10.925,10.925-10.925h6.271
	c6.012,0,10.925,4.848,10.925,10.925v51.459c0,6.012-4.848,10.925-10.925,10.925h-6.271
	C266.731,270.546,261.818,265.632,261.818,259.62z M370.747,212.105c0,6.012-4.848,10.925-10.925,10.925h-48.162v-14.869
	c0-18.036-14.675-32.711-32.711-32.711h-6.271c-18.036,0-32.711,14.675-32.711,32.711v14.869h-87.467v-14.869
	c0-18.036-14.675-32.711-32.711-32.711h-6.271c-18.036,0-32.711,14.675-32.711,32.711v14.869H32.711
	c-6.012,0-10.925-4.848-10.925-10.925v-27.281h27.669c6.012,0,10.925-4.848,10.925-10.925c0-6.012-4.848-10.925-10.925-10.925
	H21.786v-25.018h66.133c6.012,0,10.925-4.848,10.925-10.925c0-6.077-4.848-10.925-10.925-10.925H21.786V99.944
	c0-6.012,4.848-10.925,10.925-10.925h327.111c6.012,0,10.925,4.848,10.925,10.925v112.032l0,0V212.105z"/>
<g>
</g>
<g>
</g>
<g>
</g>
<g>
</g>
<g>
</g>
<g>
</g>
<g>
</g>
<g>
</g>
<g>
</g>
<g>
</g>
<g>
</g>
<g>
</g>
<g>
</g>
<g>
</g>
<g>
</g>
</svg>
