<?xml version="1.0" encoding="utf-8"?>
<!-- Generator: Adobe Illustrator 16.0.0, SVG Export Plug-In . SVG Version: 6.00 Build 0)  -->
<!DOCTYPE svg PUBLIC "-//W3C//DTD SVG 1.1//EN" "http://www.w3.org/Graphics/SVG/1.1/DTD/svg11.dtd">
<svg version="1.1" id="Layer_1" xmlns="http://www.w3.org/2000/svg" xmlns:xlink="http://www.w3.org/1999/xlink" x="0px" y="0px"
	 width="259px" height="90.05px" viewBox="0 0 230 80.05" style="enable-background:new 0 0 230 80.05;" xml:space="preserve" preserveAspectRatio="none">
<style type="text/css">
<![CDATA[
	.st0{fill:#FFFFFF;}
]]>
</style>
<g>
	<g>
		<g>
			<g>
				<g>
					<path class="st0" d="M67.874,56.784h7.945v1.214l-6.127,8.204h6.367v1.322H67.62v-1.232l6.112-8.185h-5.859V56.784z"/>
					<path class="st0" d="M80.404,67.524h-1.689v-10.74h1.505l0.102,1.466c0.651-1.127,1.811-1.688,3.479-1.688
						c1.247,0,2.207,0.376,2.878,1.128c0.671,0.754,1.007,1.72,1.007,2.898v6.937h-1.709v-6.55c0-1.938-0.888-2.909-2.665-2.909
						c-1.017,0-1.757,0.295-2.217,0.885c-0.462,0.591-0.692,1.333-0.692,2.229V67.524z"/>
					<path class="st0" d="M97.592,67.524l-0.082-1.199c-0.583,0.949-1.756,1.424-3.519,1.424c-2.414,0-3.62-1.079-3.62-3.235
						c0-2.155,1.295-3.234,3.885-3.234h3.153v-0.895c0-1.642-0.855-2.461-2.563-2.461c-0.855,0-1.502,0.167-1.943,0.498
						c-0.441,0.331-0.662,0.741-0.662,1.23v0.162h-1.586v-0.162c0-0.882,0.356-1.617,1.068-2.207
						c0.712-0.589,1.766-0.884,3.163-0.884c1.492,0,2.566,0.352,3.224,1.058c0.658,0.705,0.987,1.647,0.987,2.826v7.079H97.592z
						 M94.419,66.385c1.044,0,1.804-0.24,2.278-0.722c0.474-0.48,0.712-1.136,0.712-1.963v-1.058H94.5
						c-1.614,0-2.421,0.611-2.421,1.832C92.08,65.748,92.859,66.385,94.419,66.385z"/>
					<path class="st0" d="M104.061,67.524h-1.688v-10.74h1.505l0.102,1.466c0.651-1.127,1.811-1.688,3.479-1.688
						c1.247,0,2.206,0.376,2.877,1.128c0.671,0.754,1.007,1.72,1.007,2.898v6.937h-1.709v-6.55c0-1.938-0.888-2.909-2.664-2.909
						c-1.017,0-1.757,0.295-2.218,0.885c-0.46,0.591-0.691,1.333-0.691,2.229V67.524z"/>
					<path class="st0" d="M111.771,71.187v-1.403h0.61c1.518,0,2.278-0.598,2.278-1.79V56.784h1.708v11.148
						c0,0.935-0.292,1.71-0.875,2.327c-0.584,0.617-1.566,0.927-2.949,0.927H111.771z M116.388,54.669h-1.75v-1.993h1.75V54.669z"/>
					<path class="st0" d="M128.185,64.475c0,0.393-0.068,0.77-0.203,1.128c-0.136,0.359-0.355,0.709-0.661,1.048
						c-0.305,0.339-0.753,0.606-1.343,0.803c-0.589,0.196-1.292,0.296-2.104,0.296c-0.828,0-1.543-0.12-2.146-0.356
						c-0.604-0.236-1.069-0.562-1.394-0.976s-0.563-0.856-0.711-1.323c-0.15-0.467-0.225-0.966-0.225-1.495v-2.808
						c0-0.528,0.079-1.032,0.235-1.515c0.155-0.481,0.396-0.933,0.722-1.353s0.79-0.753,1.394-0.996
						c0.603-0.246,1.305-0.366,2.105-0.366c0.8,0,1.495,0.12,2.084,0.366c0.59,0.243,1.048,0.576,1.374,0.996
						c0.325,0.42,0.562,0.868,0.711,1.343s0.223,0.982,0.223,1.524v1.852h-7.179v1.118c0,0.734,0.223,1.353,0.671,1.862
						c0.447,0.509,1.16,0.762,2.136,0.762c0.949,0,1.64-0.192,2.074-0.579s0.651-0.851,0.651-1.394V64.25h1.586V64.475z
						 M121.066,60.568v0.732h5.552v-0.732c0-0.732-0.223-1.36-0.671-1.882c-0.447-0.522-1.146-0.782-2.094-0.782
						c-0.963,0-1.669,0.263-2.116,0.792C121.29,59.226,121.066,59.85,121.066,60.568z"/>
					<path class="st0" d="M140.898,67.749c-1.586,0-2.699-0.482-3.336-1.444v4.882h-1.688V56.784h1.505l0.101,1.445
						c0.651-1.112,1.812-1.668,3.479-1.668c1.22,0,2.177,0.386,2.868,1.158c0.691,0.774,1.039,1.77,1.039,2.991v2.888
						c0,1.221-0.353,2.218-1.059,2.99C143.102,67.361,142.132,67.749,140.898,67.749z M140.471,66.243
						c1.017,0,1.722-0.271,2.116-0.813c0.392-0.542,0.589-1.274,0.589-2.197v-2.136c0-2.021-0.902-3.031-2.705-3.031
						c-1.031,0-1.774,0.289-2.228,0.865c-0.454,0.577-0.681,1.326-0.681,2.248v1.951c0,0.925,0.227,1.672,0.681,2.248
						C138.697,65.955,139.44,66.243,140.471,66.243z"/>
					<path class="st0" d="M147.488,63.496v-2.705c0-0.542,0.078-1.05,0.234-1.524c0.155-0.475,0.399-0.923,0.731-1.343
						c0.333-0.42,0.804-0.753,1.414-0.996c0.611-0.246,1.322-0.366,2.136-0.366c1.573,0,2.718,0.413,3.438,1.24
						c0.719,0.827,1.078,1.824,1.078,2.989v2.705c0,1.181-0.359,2.186-1.078,3.012c-0.72,0.827-1.864,1.241-3.438,1.241
						c-0.814,0-1.525-0.123-2.136-0.366c-0.61-0.244-1.081-0.577-1.414-0.998c-0.332-0.421-0.576-0.87-0.731-1.352
						C147.566,64.552,147.488,64.041,147.488,63.496z M154.832,63.518v-2.746c0-0.773-0.228-1.434-0.682-1.983
						c-0.454-0.549-1.169-0.824-2.146-0.824s-1.692,0.275-2.146,0.824c-0.454,0.55-0.681,1.21-0.681,1.983v2.746
						c0,0.773,0.227,1.438,0.681,1.993c0.454,0.557,1.169,0.835,2.146,0.835s1.691-0.278,2.146-0.835
						C154.604,64.955,154.832,64.291,154.832,63.518z"/>
					<path class="st0" d="M162.114,67.524l-3.946-10.74h1.771l3.06,8.684l3.001-8.684h1.709l-3.926,10.74H162.114z"/>
					<path class="st0" d="M178.142,64.475c0,0.393-0.067,0.77-0.203,1.128c-0.136,0.359-0.355,0.709-0.66,1.048
						c-0.306,0.339-0.753,0.606-1.342,0.803c-0.591,0.196-1.292,0.296-2.106,0.296c-0.828,0-1.542-0.12-2.146-0.356
						c-0.604-0.236-1.068-0.562-1.394-0.976c-0.326-0.414-0.563-0.856-0.712-1.323c-0.149-0.467-0.225-0.966-0.225-1.495v-2.808
						c0-0.528,0.078-1.032,0.235-1.515c0.154-0.481,0.396-0.933,0.721-1.353s0.791-0.753,1.395-0.996
						c0.604-0.246,1.304-0.366,2.104-0.366c0.8,0,1.496,0.12,2.084,0.366c0.591,0.243,1.049,0.576,1.375,0.996
						c0.325,0.42,0.563,0.868,0.711,1.343s0.223,0.982,0.223,1.524v1.852h-7.179v1.118c0,0.734,0.224,1.353,0.671,1.862
						c0.446,0.509,1.159,0.762,2.136,0.762c0.949,0,1.64-0.192,2.074-0.579c0.434-0.387,0.65-0.851,0.65-1.394V64.25h1.587V64.475z
						 M171.024,60.568v0.732h5.552v-0.732c0-0.732-0.224-1.36-0.671-1.882c-0.447-0.522-1.145-0.782-2.095-0.782
						c-0.963,0-1.669,0.263-2.115,0.792C171.248,59.226,171.024,59.85,171.024,60.568z"/>
					<path class="st0" d="M180.624,56.784h7.946v1.214l-6.128,8.204h6.367v1.322h-8.439v-1.232l6.113-8.185h-5.859V56.784z"/>
					<path class="st0" d="M198.261,67.524l-0.103-1.444c-0.666,1.112-1.804,1.669-3.418,1.669c-1.18,0-2.105-0.366-2.776-1.099
						c-0.672-0.732-1.007-1.648-1.007-2.747v-7.119h1.689v6.733c0,1.815,0.866,2.726,2.603,2.726c0.989,0,1.705-0.295,2.147-0.885
						c0.44-0.59,0.661-1.333,0.661-2.229v-6.346h1.707v10.74H198.261z"/>
					<path class="st0" d="M200.701,71.187v-1.403h0.61c1.519,0,2.278-0.598,2.278-1.79V56.784h1.709v11.148
						c0,0.935-0.292,1.71-0.875,2.327s-1.566,0.927-2.95,0.927H200.701z M205.318,54.669h-1.748v-1.993h1.748V54.669z"/>
					<path class="st0" d="M217.116,64.475c0,0.393-0.067,0.77-0.204,1.128c-0.135,0.359-0.355,0.709-0.661,1.048
						c-0.305,0.339-0.752,0.606-1.341,0.803s-1.293,0.296-2.106,0.296c-0.828,0-1.543-0.12-2.146-0.356
						c-0.603-0.236-1.065-0.562-1.392-0.976c-0.325-0.414-0.564-0.856-0.713-1.323c-0.15-0.467-0.224-0.966-0.224-1.495v-2.808
						c0-0.528,0.078-1.032,0.234-1.515c0.155-0.481,0.397-0.933,0.722-1.353c0.325-0.42,0.79-0.753,1.394-0.996
						c0.603-0.246,1.306-0.366,2.104-0.366c0.8,0,1.495,0.12,2.086,0.366c0.589,0.243,1.047,0.576,1.372,0.996
						c0.326,0.42,0.563,0.868,0.713,1.343c0.148,0.475,0.224,0.982,0.224,1.524v1.852h-7.181v1.118c0,0.734,0.223,1.353,0.67,1.862
						c0.449,0.509,1.16,0.762,2.137,0.762c0.949,0,1.642-0.192,2.076-0.579c0.434-0.387,0.65-0.851,0.65-1.394V64.25h1.586V64.475z
						 M209.997,60.568v0.732h5.554v-0.732c0-0.732-0.224-1.36-0.671-1.882c-0.449-0.522-1.147-0.782-2.097-0.782
						c-0.962,0-1.667,0.263-2.116,0.792C210.219,59.226,209.997,59.85,209.997,60.568z"/>
				</g>
			</g>
		</g>
	</g>
	<g>
		<g>
			<path class="st0" d="M191.083,1.728h-31.856c-2.076,0-3.896,1.601-3.95,3.677c-0.054,2.131,1.656,3.876,3.776,3.876h32.03V1.728z
				"/>
			<path class="st0" d="M191.083,17.804h-31.856c-2.076,0-3.896,1.6-3.95,3.677c-0.054,2.13,1.656,3.876,3.776,3.876h32.03V17.804z"
				/>
			<path class="st0" d="M191.083,33.88h-31.856c-2.076,0-3.896,1.6-3.95,3.677c-0.054,2.13,1.656,3.877,3.776,3.877h32.03V33.88z"/>
			<g>
				<path class="st0" d="M24.444,27.34h8.515v2.043c0,1.249-0.161,2.45-0.482,3.604c-0.323,1.154-0.871,2.298-1.646,3.434
					c-0.777,1.135-1.751,2.111-2.925,2.924c-1.173,0.813-2.686,1.475-4.541,1.985c-1.854,0.513-3.955,0.767-6.3,0.767
					c-2.952,0-5.517-0.426-7.692-1.277c-2.177-0.851-3.841-2.006-4.996-3.462c-1.155-1.456-2.006-2.999-2.554-4.625
					C1.274,31.105,1,29.364,1,27.51V15.588c0-1.854,0.274-3.594,0.823-5.222C2.371,8.74,3.223,7.197,4.377,5.74
					c1.154-1.456,2.819-2.612,4.996-3.462C11.548,1.426,14.113,1,17.065,1c2.913,0,5.439,0.369,7.578,1.107
					c2.137,0.738,3.793,1.731,4.967,2.98s2.024,2.583,2.554,4.002c0.53,1.419,0.795,2.924,0.795,4.513v1.646h-8.515v-1.193
					c0-1.55-0.577-2.856-1.731-3.916C21.558,9.08,19.676,8.55,17.065,8.55c-2.688,0-4.598,0.672-5.733,2.015
					c-1.136,1.344-1.704,3.019-1.704,5.023V27.51c0,2.006,0.568,3.681,1.704,5.024c1.135,1.343,3.045,2.014,5.733,2.014
					c2.647,0,4.542-0.539,5.676-1.617c1.136-1.08,1.703-2.414,1.703-4.003V27.34z"/>
				<path class="st0" d="M63.476,41.418l-2.675-8.005H46.457l-2.594,8.005h-8.688L48.95,1.681h9.653l13.924,39.737H63.476z
					 M58.506,26.545l-4.939-14.816l-4.882,14.816H58.506z"/>
				<path class="st0" d="M93.066,27.963h-7.702v13.455h-8.629V1.681H92.29c3.065,0,5.714,0.36,7.947,1.079
					c2.232,0.719,3.953,1.713,5.166,2.98c1.211,1.269,2.09,2.649,2.639,4.144c0.548,1.496,0.823,3.131,0.823,4.91
					c0,5.677-2.497,9.556-7.492,11.637l6.868,14.987h-9.196L93.066,27.963z M92.347,8.891h-6.982v11.977h6.982
					c5.184,0,7.777-1.987,7.777-5.96C100.124,10.896,97.531,8.891,92.347,8.891z"/>
				<path class="st0" d="M141.219,41.418l-17.256-24.196v24.196h-8.175V1.681h7.231l17.178,24.182V1.681h8.175v39.737H141.219z"/>
				<path class="st0" d="M228.813,9.231h-11.692v32.187h-8.63V9.231h-11.636v-7.55h31.958V9.231z"/>
			</g>
		</g>
	</g>
</g>
</svg>
