<svg height="512" viewBox="0 0 512 512" width="512" xmlns="http://www.w3.org/2000/svg"><g id="Flat"><path d="m440 256.007q0 5.28-.3 10.5a183.783 183.783 0 0 1 -183.7 173.5c-99.53 0-180.61-79.03-183.9-177.77-.07-2.07-.1-4.14-.1-6.23a184 184 0 1 1 368 0z" fill="#348fd9"/><path d="m264 184.007v40h-40l-48 40h-32v48l-71.9-49.77c-.07-2.07-.1-4.14-.1-6.23a183.67 183.67 0 0 1 69.45-144h18.55l32 40h40z" fill="#459de6"/><path d="m440 256.007q0 5.28-.3 10.5l-7.7 5.5h-40l-48 32h-48v-56l24-16v-56h48l33.13-33.13a183.252 183.252 0 0 1 38.87 113.13z" fill="#459de6"/><path d="m376 368.007-15.89 39.73a183.063 183.063 0 0 1 -64.11 27.91v-43.64h-32v-56h72v32z" fill="#459de6"/><path d="m355.07 100.937-19.07 19.07-32-8-16 24-32-24v-40a183.057 183.057 0 0 1 99.07 28.93z" fill="#459de6"/><g fill="#a8deea"><path d="m32 256a225.7 225.7 0 0 0 4.177 43.264l15.7-3.075a208.362 208.362 0 0 1 119.386-230.205l-6.526-14.609a224.379 224.379 0 0 0 -132.737 204.625z"/><path d="m39.273 312.824c1.57 6 3.412 12 5.475 17.842l15.086-5.332c-1.915-5.418-3.625-10.988-5.082-16.559z"/><path d="m256 464a207.471 207.471 0 0 1 -69.334-11.834l-5.332 15.086a223.452 223.452 0 0 0 74.666 12.748 226.247 226.247 0 0 0 37.719-3.163l-2.676-15.775a210.129 210.129 0 0 1 -35.043 2.938z"/><path d="m306.312 457.876 3.858 15.524c6.9-1.713 13.795-3.783 20.5-6.151l-5.332-15.086c-6.224 2.201-12.623 4.122-19.026 5.713z"/><path d="m384.272 72.342-9.172 13.109a208.287 208.287 0 0 1 77.065 239.883l15.086 5.332a224.287 224.287 0 0 0 -82.98-258.324z"/><path d="m348.439 69.616c5.32 2.644 10.591 5.554 15.668 8.65l8.329-13.666c-5.467-3.333-11.145-6.468-16.875-9.316z"/></g><path d="m328 96a72 72 0 1 1 -72-72 71.772 71.772 0 0 1 72 72z" fill="#4db7e5"/><path d="m168 416a72 72 0 1 1 -72-72 71.772 71.772 0 0 1 72 72z" fill="#4db7e5"/><path d="m488 416a72 72 0 1 1 -72-72 71.772 71.772 0 0 1 72 72z" fill="#4db7e5"/><path d="m307.6 146.21a71.991 71.991 0 0 1 -103.2 0 56.124 56.124 0 0 1 34.12-31.41 32 32 0 1 1 34.96 0 56.124 56.124 0 0 1 34.12 31.41z" fill="#2b78b8"/><path d="m147.6 466.21a71.991 71.991 0 0 1 -103.2 0 56.124 56.124 0 0 1 34.12-31.41 32 32 0 1 1 34.96 0 56.124 56.124 0 0 1 34.12 31.41z" fill="#2b78b8"/><path d="m467.6 466.21a71.991 71.991 0 0 1 -103.2 0 56.124 56.124 0 0 1 34.12-31.41 32 32 0 1 1 34.96 0 56.124 56.124 0 0 1 34.12 31.41z" fill="#2b78b8"/></g></svg>