<?xml version="1.0" encoding="utf-8"?>
<!-- Generator: Adobe Illustrator 16.0.0, SVG Export Plug-In . SVG Version: 6.00 Build 0)  -->
<!DOCTYPE svg PUBLIC "-//W3C//DTD SVG 1.1//EN" "http://www.w3.org/Graphics/SVG/1.1/DTD/svg11.dtd">
<svg version="1.1" id="Layer_1" xmlns="http://www.w3.org/2000/svg" xmlns:xlink="http://www.w3.org/1999/xlink" x="0px" y="0px"
	 width="300px" height="80px" viewBox="5 49 315.208 72.792" enable-background="new 5.417 45.375 315.208 72.792"
	 xml:space="preserve">
<path fill="#AD519E" d="M166.722,46.647h-32.537c-2.122,0-3.98,1.634-4.035,3.755c-0.056,2.177,1.691,3.958,3.856,3.958h32.716
	V46.647z"/>
<path fill="#AD519E" d="M166.722,63.066h-32.537c-2.122,0-3.98,1.634-4.035,3.754c-0.056,2.177,1.691,3.96,3.856,3.96h32.716V63.066
	z"/>
<path fill="#AD519E" d="M166.722,79.484h-32.537c-2.122,0-3.98,1.635-4.035,3.756c-0.056,2.178,1.691,3.958,3.856,3.958h32.716
	V79.484z"/>
<path fill="#6D6E70" d="M5.763,87.187V46.659h16.501c3.087,0,5.77,0.434,8.048,1.302c2.277,0.868,4.033,2.037,5.268,3.503
	c1.235,1.467,2.132,3.031,2.692,4.69c0.56,1.66,0.84,3.436,0.84,5.326v10.885c0,1.892-0.28,3.668-0.84,5.326
	c-0.56,1.66-1.457,3.224-2.692,4.69c-1.235,1.466-2.991,2.634-5.268,3.502c-2.278,0.869-4.961,1.304-8.048,1.304L5.763,87.187
	L5.763,87.187z M14.563,79.486h7.701c2.895,0,4.95-0.724,6.167-2.171c1.215-1.447,1.823-3.271,1.823-5.471v-9.844
	c0-2.2-0.607-4.023-1.823-5.471c-1.216-1.448-3.271-2.17-6.167-2.17h-7.701V79.486z"/>
<path fill="#6D6E70" d="M62.256,87.881c-3.088,0-5.771-0.434-8.048-1.301c-2.278-0.87-4.023-2.047-5.24-3.533
	c-1.216-1.484-2.104-3.059-2.664-4.718c-0.56-1.659-0.839-3.436-0.839-5.326V60.844c0-1.891,0.28-3.667,0.839-5.327
	c0.559-1.659,1.448-3.232,2.664-4.719c1.216-1.485,2.962-2.663,5.24-3.532c2.277-0.869,4.959-1.302,8.048-1.302
	c3.126,0,5.827,0.434,8.105,1.302c2.277,0.869,4.024,2.047,5.24,3.532c1.215,1.487,2.104,3.06,2.663,4.719
	c0.559,1.661,0.839,3.436,0.839,5.327v12.158c0,1.892-0.28,3.667-0.839,5.327c-0.56,1.659-1.448,3.232-2.663,4.717
	c-1.216,1.487-2.963,2.664-5.24,3.533C68.082,87.447,65.382,87.881,62.256,87.881 M62.256,80.181c2.932,0,5.008-0.724,6.224-2.17
	c1.216-1.448,1.824-3.272,1.824-5.472V61.307c0-2.2-0.607-4.023-1.824-5.471c-1.216-1.448-3.292-2.171-6.224-2.171
	c-2.896,0-4.951,0.724-6.167,2.171c-1.215,1.448-1.824,3.271-1.824,5.471v11.232c0,2.199,0.608,4.023,1.824,5.472
	C57.304,79.457,59.36,80.181,62.256,80.181"/>
<polygon fill="#6D6E70" points="102.624,74.392 94.171,62.117 94.171,87.188 86.008,87.188 86.008,46.659 93.649,46.659 
	104.592,63.332 115.129,46.659 123.236,46.659 123.236,87.188 114.608,87.188 114.608,61.712 106.388,74.392 "/>
<polygon fill="#6D6E70" points="200.443,87.187 182.843,62.51 182.843,87.187 174.505,87.187 174.505,46.659 181.879,46.659 
	199.4,71.323 199.4,46.659 207.738,46.659 207.738,87.187 "/>
<polygon fill="#6D6E70" points="216.017,87.187 216.017,46.659 243.46,46.659 243.46,54.012 224.817,54.012 224.817,62.754 
	241.954,62.754 241.954,69.876 224.817,69.876 224.817,79.834 244.154,79.834 244.154,87.187 "/>
<rect x="250.06" y="78.965" fill="#6D6E70" width="8.684" height="8.223"/>
<path fill="#6D6E70" d="M273.97,87.187h-8.337V44.921h8.337v14.533c1.93-2.663,4.844-3.995,8.742-3.995
	c3.396,0,6.088,1.081,8.077,3.242c1.987,2.163,2.982,5.115,2.982,8.859v19.627h-8.338V69.644c0-4.516-1.795-6.773-5.385-6.773
	c-4.052,0-6.079,2.451-6.079,7.353V87.187L273.97,87.187z"/>
<path fill="#6D6E70" d="M309.765,87.187h-8.338V56.154h7.354l0.578,4.747c1.892-3.511,5.521-5.268,10.885-5.268v7.875h-1.563
	c-5.944,0-8.915,2.702-8.915,8.105V87.187L309.765,87.187z"/>
<g>
	<path fill="#6D6E70" d="M165.226,113.25v-11.1h1.555l0.105,1.515c0.609-1.051,1.829-1.745,3.595-1.745
		c2.69,0,4.015,1.851,4.015,4.162v7.168h-1.766v-6.769c0-1.514-0.568-3.006-2.753-3.006c-2.271,0-3.006,1.577-3.006,3.216v6.559
		H165.226L165.226,113.25z"/>
	<path fill="#6D6E70" d="M184.249,112.009c-0.546,0.883-1.661,1.472-3.636,1.472c-2.816,0-3.741-1.492-3.741-3.342
		c0-2.144,1.24-3.343,4.015-3.343h3.258v-0.924c0-1.388-0.63-2.544-2.648-2.544c-1.851,0-2.69,0.841-2.69,1.787v0.168h-1.639v-0.168
		c0-1.681,1.324-3.195,4.372-3.195c3.279,0,4.351,1.787,4.351,4.015v7.314h-1.556L184.249,112.009z M184.144,109.298v-1.093h-3.006
		c-1.85,0-2.5,0.714-2.5,1.893c0,1.093,0.525,1.975,2.417,1.975C183.324,112.072,184.144,110.875,184.144,109.298z"/>
	<path fill="#6D6E70" d="M195.095,111.988v5.045h-1.745V102.15h1.555l0.105,1.494c0.609-1.052,1.829-1.725,3.595-1.725
		c2.606,0,4.036,1.851,4.036,4.288v2.984c0,2.46-1.471,4.288-4.099,4.288C196.861,113.48,195.705,112.913,195.095,111.988z
		 M200.897,108.815v-2.208c0-1.64-0.568-3.132-2.795-3.132c-2.27,0-3.006,1.514-3.006,3.216v2.019c0,1.701,0.736,3.215,3.006,3.215
		C200.371,111.925,200.897,110.496,200.897,108.815z"/>
	<path fill="#6D6E70" d="M205.353,113.25v-11.1h1.555l0.126,1.872c0.609-1.219,1.87-2.081,3.931-2.081v1.703h-0.315
		c-2.585,0-3.553,1.597-3.553,3.613v5.991L205.353,113.25L205.353,113.25z"/>
	<path fill="#6D6E70" d="M219.414,112.009c-0.546,0.883-1.661,1.472-3.636,1.472c-2.816,0-3.741-1.492-3.741-3.342
		c0-2.144,1.24-3.343,4.014-3.343h3.258v-0.924c0-1.388-0.631-2.544-2.648-2.544c-1.851,0-2.69,0.841-2.69,1.787v0.168h-1.64v-0.168
		c0-1.681,1.324-3.195,4.371-3.195c3.279,0,4.352,1.787,4.352,4.015v7.314h-1.556L219.414,112.009z M219.309,109.298v-1.093h-3.006
		c-1.85,0-2.501,0.714-2.501,1.893c0,1.093,0.526,1.975,2.417,1.975C218.49,112.072,219.309,110.875,219.309,109.298z"/>
	<path fill="#6D6E70" d="M222.694,102.15h1.829l3.153,8.977l3.11-8.977h1.766l-4.057,11.1h-1.723L222.694,102.15z"/>
	<path fill="#6D6E70" d="M233.834,106.292c0-2.08,1.134-4.372,4.667-4.372c3.552,0,4.666,2.292,4.666,4.372v2.796
		c0,2.103-1.114,4.393-4.666,4.393c-3.532,0-4.667-2.291-4.667-4.393V106.292z M241.422,106.271c0-1.367-0.714-2.9-2.921-2.9
		s-2.921,1.533-2.921,2.9v2.837c0,1.366,0.714,2.923,2.921,2.923s2.921-1.557,2.921-2.923V106.271z"/>
	<path fill="#6D6E70" d="M242.914,115.582h0.631c1.829,0,2.354-0.841,2.354-1.85V102.15h1.765v11.52c0,1.64-0.82,3.363-3.951,3.363
		h-0.799L242.914,115.582L242.914,115.582z M245.878,99.965v-2.06h1.808v2.06H245.878z"/>
	<path fill="#6D6E70" d="M262.041,112.009c-0.547,0.883-1.661,1.472-3.637,1.472c-2.816,0-3.74-1.492-3.74-3.342
		c0-2.144,1.239-3.343,4.014-3.343h3.259v-0.924c0-1.388-0.632-2.544-2.65-2.544c-1.85,0-2.689,0.841-2.689,1.787v0.168h-1.64
		v-0.168c0-1.681,1.324-3.195,4.372-3.195c3.278,0,4.351,1.787,4.351,4.015v7.314h-1.556L262.041,112.009z M261.937,109.298v-1.093
		h-3.007c-1.85,0-2.5,0.714-2.5,1.893c0,1.093,0.525,1.975,2.416,1.975C261.116,112.072,261.937,110.875,261.937,109.298z"/>
	<path fill="#6D6E70" d="M273.917,111.757c-0.609,1.052-1.828,1.724-3.595,1.724c-2.605,0-4.035-1.851-4.035-4.288v-2.984
		c0-2.46,1.471-4.288,4.099-4.288c1.682,0,2.838,0.568,3.447,1.492v-5.507h1.745v15.345h-1.556L273.917,111.757z M273.832,108.71
		v-2.019c0-1.702-0.735-3.216-3.006-3.216c-2.228,0-2.795,1.472-2.795,3.111v2.206c0,1.641,0.567,3.132,2.795,3.132
		C273.098,111.925,273.832,110.411,273.832,108.71z"/>
	<path fill="#6D6E70" d="M278.668,113.25v-11.1h1.555l0.127,1.872c0.608-1.219,1.87-2.081,3.931-2.081v1.703h-0.315
		c-2.586,0-3.553,1.597-3.553,3.613v5.991L278.668,113.25L278.668,113.25z"/>
	<path fill="#6D6E70" d="M290.207,113.48c-3.573,0-4.624-2.228-4.624-4.287v-2.9c0-2.081,1.135-4.372,4.603-4.372
		c3.447,0,4.541,2.291,4.541,4.372v1.912h-7.42v1.156c0,1.324,0.714,2.711,2.9,2.711c2.145,0,2.816-1.093,2.816-2.038v-0.168h1.641
		v0.231C294.662,111.589,293.738,113.48,290.207,113.48z M287.307,106.817h5.737v-0.756c0-1.304-0.714-2.753-2.858-2.753
		c-2.186,0-2.88,1.471-2.88,2.753L287.307,106.817L287.307,106.817z"/>
	<path fill="#6D6E70" d="M303.617,105.22v-0.167c0-1.01-0.547-1.808-2.607-1.808c-1.701,0-2.458,0.714-2.458,1.723
		c0,0.883,0.609,1.281,1.744,1.534l2.438,0.547c1.472,0.336,2.858,1.072,2.858,2.943c0,1.976-1.26,3.488-4.351,3.488
		c-3.531,0-4.498-1.409-4.498-2.943v-0.23h1.702v0.189c0,0.884,0.568,1.618,2.816,1.618c1.787,0,2.607-0.798,2.607-1.954
		c0-0.968-0.736-1.388-1.661-1.598l-2.354-0.526c-1.744-0.398-2.942-1.05-2.942-2.963c0-1.744,1.304-3.152,4.142-3.152
		c3.257,0,4.245,1.451,4.245,3.09v0.21L303.617,105.22L303.617,105.22z"/>
	<path fill="#6D6E70" d="M308.094,99.965v-2.06h1.808v2.06H308.094z M308.115,113.25v-11.1h1.766v11.1H308.115z"/>
</g>
</svg>
